<?xml version="1.0" encoding="UTF-8" standalone="no"?>
<!DOCTYPE svg PUBLIC "-//W3C//DTD SVG 1.1//EN" "http://www.w3.org/Graphics/SVG/1.1/DTD/svg11.dtd">
<svg width="100%" height="100%" viewBox="0 0 1298 300" version="1.1" xmlns="http://www.w3.org/2000/svg" xmlns:xlink="http://www.w3.org/1999/xlink" xml:space="preserve" xmlns:serif="http://www.serif.com/" style="fill-rule:evenodd;clip-rule:evenodd;stroke-linejoin:round;stroke-miterlimit:2;">
    <g id="layer1" transform="matrix(4.990539,0,0,4.990539,-1312.26182,-569.511202)">
        <g id="g5357" transform="matrix(1,0,0,1,0.500002,-0.499995)">
            <g id="g4913" transform="matrix(1.25,0,0,-1.25,168.52043,1073.5823)">
                <g id="g4915">
                    <g id="g4921" transform="matrix(1,0,0,1,123.3435,766.5933)">
                        <path id="path4923" d="M0,0C-0.006,0.097 -0.09,0.178 -0.197,0.178L-5.676,0.178L-5.808,0.114L-5.861,-0.015C-5.736,-2.51 -5.75,-4.95 -5.911,-7.295C-7.054,-23.723 -15.373,-35.674 -30.645,-42.813C-33.965,-44.355 -37.636,-45.68 -41.552,-46.742C-41.649,-46.773 -41.709,-46.865 -41.686,-46.974C-41.671,-47.056 -41.595,-47.113 -41.5,-47.113L-41.483,-47.113C-41.406,-47.106 -34.438,-46.216 -27.942,-43.616C-20.506,-40.647 -14.444,-36.556 -9.929,-31.461C-4.602,-25.474 -1.371,-17.999 -0.323,-9.276C0.025,-6.33 0.134,-3.214 0,0" style="fill:rgb(215,223,35);fill-rule:nonzero;"/>
                    </g>
                    <g id="g4925" transform="matrix(1,0,0,1,108.4816,760.4996)">
                        <path id="path4927" d="M0,0C-0.053,0.142 -0.142,0.306 -0.398,0.347C-1.205,0.386 -1.995,0.405 -2.752,0.405C-10.816,0.405 -18.391,-1.63 -24.091,-5.319C-26.863,-7.11 -29.051,-9.213 -30.566,-11.537C-32.138,-13.946 -32.938,-16.514 -32.938,-19.165C-32.938,-22.292 -31.833,-25.286 -29.653,-28.059C-27.562,-30.696 -24.528,-33.033 -20.852,-34.814C-20.828,-34.834 -20.761,-34.854 -20.671,-34.854L-20.541,-34.834C-14.147,-32.439 -8.733,-28.654 -4.882,-23.9C-0.924,-19.016 1.166,-13.337 1.166,-7.476C1.166,-4.95 0.775,-2.445 0,0" style="fill:rgb(57,181,74);fill-rule:nonzero;"/>
                    </g>
                    <g id="g4929" transform="matrix(1,0,0,1,134.1957,747.8458)">
                        <path id="path4931" d="M0,0C-1.093,2.011 -2.686,3.891 -4.731,5.579L-4.863,5.632C-4.953,5.632 -4.999,5.543 -5.011,5.462L-5.011,5.461C-6.24,-9.864 -18.573,-22.53 -34.987,-25.364L-35.136,-25.487C-35.136,-25.515 -35.123,-25.588 -34.99,-25.608C-32.862,-25.913 -30.661,-26.061 -28.466,-26.061C-20.416,-26.061 -12.844,-24.042 -7.138,-20.357C-4.365,-18.55 -2.19,-16.461 -0.666,-14.128C0.912,-11.718 1.715,-9.15 1.715,-6.511C1.715,-4.272 1.137,-2.086 0,0" style="fill:rgb(0,173,220);fill-rule:nonzero;"/>
                    </g>
                </g>
            </g>
            <g id="g4933" transform="matrix(1.25,0,0,-1.25,358.71831,166.53492)">
                <path id="path4935" d="M0,0L-3.583,4.905L-4.913,3.522L-4.913,-0.003L-7.452,-0.003L-7.452,11.532L-4.913,11.532L-4.913,6.486L-0.23,11.533L2.841,11.533L-1.864,6.644L3.054,0L0,0Z" style="fill:rgb(0,173,220);fill-rule:nonzero;"/>
            </g>
            <g id="g4937" transform="matrix(1.25,0,0,-1.25,168.52043,1073.5823)">
                <g id="g4939">
                    <g id="g4945" transform="matrix(1,0,0,1,159.9226,732.6246)">
                        <path id="path4947" d="M0,0C-1.032,0 -1.712,-0.743 -1.906,-1.881L1.869,-1.881C1.726,-0.755 1.064,0 0,0M4.275,-3.439L-1.877,-3.439C-1.63,-4.586 -0.832,-5.18 0.288,-5.18C1.126,-5.18 1.734,-4.912 2.428,-4.267L3.865,-5.54C3.039,-6.56 1.85,-7.194 0.246,-7.194C-2.403,-7.194 -4.369,-5.321 -4.369,-2.621L-4.369,-2.588C-4.369,-0.07 -2.57,2.017 0,2.017C2.954,2.017 4.309,-0.284 4.309,-2.79L4.309,-2.818C4.309,-3.07 4.293,-3.218 4.275,-3.439" style="fill:rgb(0,173,220);fill-rule:nonzero;"/>
                    </g>
                    <g id="g4949" transform="matrix(1,0,0,1,169.0803,725.4888)">
                        <path id="path4951" d="M0,0C-1.536,0 -2.577,0.603 -2.577,2.649L-2.577,6.836L-3.636,6.836L-3.636,8.983L-2.577,8.983L-2.577,11.235L-0.071,11.235L-0.071,8.983L2.01,8.983L2.01,6.836L-0.071,6.836L-0.071,3.064C-0.071,2.488 0.173,2.2 0.741,2.2C1.2,2.2 1.619,2.328 1.977,2.518L1.977,0.509C1.449,0.196 0.841,0 0,0" style="fill:rgb(0,173,220);fill-rule:nonzero;"/>
                    </g>
                    <g id="g4953" transform="matrix(1,0,0,1,176.6277,732.6246)">
                        <path id="path4955" d="M0,0C-1.042,0 -1.715,-0.743 -1.909,-1.881L1.865,-1.881C1.721,-0.755 1.054,0 0,0M4.275,-3.439L-1.872,-3.439C-1.633,-4.586 -0.838,-5.18 0.282,-5.18C1.126,-5.18 1.734,-4.912 2.428,-4.267L3.863,-5.54C3.031,-6.56 1.85,-7.194 0.249,-7.194C-2.404,-7.194 -4.365,-5.321 -4.365,-2.621L-4.365,-2.588C-4.365,-0.07 -2.568,2.017 0,2.017C2.958,2.017 4.301,-0.284 4.301,-2.79L4.301,-2.818C4.301,-3.07 4.287,-3.218 4.275,-3.439" style="fill:rgb(0,173,220);fill-rule:nonzero;"/>
                    </g>
                    <g id="g4957" transform="matrix(1,0,0,1,188.3871,725.6379)">
                        <path id="path4959" d="M0,0L0,4.922C0,6.108 -0.559,6.722 -1.518,6.722C-2.475,6.722 -3.085,6.108 -3.085,4.922L-3.085,0L-5.59,0L-5.59,8.833L-3.085,8.833L-3.085,7.579C-2.508,8.321 -1.769,9.004 -0.491,9.004C1.4,9.004 2.506,7.743 2.506,5.714L2.506,0L0,0Z" style="fill:rgb(0,173,220);fill-rule:nonzero;"/>
                    </g>
                    <g id="g4961" transform="matrix(1,0,0,1,198.2948,729.1941)">
                        <path id="path4963" d="M0,0C-0.429,0.203 -0.989,0.331 -1.602,0.331C-2.675,0.331 -3.329,-0.101 -3.329,-0.89L-3.329,-0.922C-3.329,-1.596 -2.768,-1.99 -1.96,-1.99C-0.795,-1.99 -0,-1.35 -0,-0.444L0,0ZM-0.049,-3.556L-0.049,-2.602C-0.659,-3.282 -1.508,-3.721 -2.717,-3.721C-4.381,-3.721 -5.754,-2.773 -5.754,-1.017L-5.754,-0.99C-5.754,0.939 -4.289,1.827 -2.19,1.827C-1.297,1.827 -0.659,1.678 -0.033,1.473L-0.033,1.622C-0.033,2.662 -0.677,3.244 -1.928,3.244C-2.882,3.244 -3.556,3.053 -4.372,2.755L-4.998,4.674C-4.022,5.098 -3.064,5.374 -1.571,5.374C1.166,5.374 2.378,3.959 2.378,1.575L2.378,-3.556L-0.049,-3.556Z" style="fill:rgb(0,173,220);fill-rule:nonzero;"/>
                    </g>
                    <g id="g4965" transform="matrix(1,0,0,1,209.2379,730.5201)">
                        <path id="path4967" d="M0,0C0,1.197 -0.93,2.034 -2.15,2.034C-3.369,2.034 -4.296,1.197 -4.296,0L-4.296,-0.036C-4.296,-1.259 -3.369,-2.086 -2.15,-2.086C-0.93,-2.086 -0,-1.247 -0,-0.036L0,0ZM-2.446,-7.553C-3.883,-7.553 -5.236,-7.225 -6.349,-6.634L-5.497,-4.747C-4.594,-5.261 -3.687,-5.561 -2.511,-5.561C-0.801,-5.561 0,-4.741 0,-3.156L0,-2.725C-0.734,-3.617 -1.545,-4.161 -2.878,-4.161C-4.94,-4.161 -6.796,-2.655 -6.796,-0.036L-6.796,0C-6.796,2.633 -4.913,4.122 -2.878,4.122C-1.507,4.122 -0.703,3.54 -0.023,2.797L-0.023,3.951L2.477,3.951L2.477,-2.892C2.477,-6.221 0.838,-7.553 -2.446,-7.553" style="fill:rgb(0,173,220);fill-rule:nonzero;"/>
                    </g>
                    <g id="g4969" transform="matrix(1,0,0,1,219.1941,729.1941)">
                        <path id="path4971" d="M0,0C-0.432,0.203 -0.995,0.331 -1.607,0.331C-2.68,0.331 -3.338,-0.101 -3.338,-0.89L-3.338,-0.922C-3.338,-1.596 -2.774,-1.99 -1.969,-1.99C-0.799,-1.99 0,-1.35 0,-0.444L0,0ZM-0.055,-3.556L-0.055,-2.602C-0.667,-3.282 -1.514,-3.721 -2.731,-3.721C-4.391,-3.721 -5.759,-2.773 -5.759,-1.017L-5.759,-0.99C-5.759,0.939 -4.286,1.827 -2.199,1.827C-1.309,1.827 -0.667,1.678 -0.04,1.473L-0.04,1.622C-0.04,2.662 -0.69,3.244 -1.93,3.244C-2.892,3.244 -3.563,3.053 -4.379,2.755L-4.999,4.674C-4.028,5.098 -3.07,5.374 -1.57,5.374C1.167,5.374 2.368,3.959 2.368,1.575L2.368,-3.556L-0.055,-3.556Z" style="fill:rgb(0,173,220);fill-rule:nonzero;"/>
                    </g>
                </g>
            </g>
            <g id="g4973" transform="matrix(1.25,0,0,-1.25,455.28755,166.53492)">
                <path id="path4975" d="M0,0L-2.316,3.6L-3.188,2.682L-3.188,0L-5.688,0L-5.688,12.026L-3.188,12.026L-3.188,5.615L-0.246,8.833L2.751,8.833L-0.612,5.359L2.864,0L0,0Z" style="fill:rgb(0,173,220);fill-rule:nonzero;"/>
            </g>
            <g id="g4977" transform="matrix(1.25,0,0,-1.25,168.52043,1073.5823)">
                <g id="g4979">
                    <g id="g4985" transform="matrix(1,0,0,1,237.0121,732.6246)">
                        <path id="path4987" d="M0,0C-1.035,0 -1.719,-0.743 -1.913,-1.881L1.868,-1.881C1.716,-0.755 1.059,0 0,0M4.267,-3.439L-1.882,-3.439C-1.637,-4.586 -0.844,-5.18 0.284,-5.18C1.123,-5.18 1.733,-4.912 2.43,-4.267L3.859,-5.54C3.039,-6.56 1.845,-7.194 0.249,-7.194C-2.407,-7.194 -4.372,-5.321 -4.372,-2.621L-4.372,-2.588C-4.372,-0.07 -2.568,2.017 0,2.017C2.957,2.017 4.306,-0.284 4.306,-2.79L4.306,-2.818C4.306,-3.07 4.293,-3.218 4.267,-3.439" style="fill:rgb(0,173,220);fill-rule:nonzero;"/>
                    </g>
                    <g id="g4989" transform="matrix(1,0,0,1,248.3677,732.0211)">
                        <path id="path4991" d="M0,0C-1.66,0 -2.687,-1.01 -2.687,-3.12L-2.687,-6.383L-5.187,-6.383L-5.187,2.45L-2.687,2.45L-2.687,0.665C-2.175,1.896 -1.344,2.682 0.139,2.621L0.139,0L0,0Z" style="fill:rgb(0,173,220);fill-rule:nonzero;"/>
                    </g>
                    <path id="path4993" d="M250.117,737.663L252.765,737.663L252.765,735.45L250.117,735.45L250.117,737.663ZM249.859,722.948C249.395,722.948 249.112,722.98 248.766,723.044L248.766,725.012C248.97,724.975 249.112,724.959 249.294,724.959C249.827,724.959 250.18,725.239 250.18,725.983L250.18,734.471L252.691,734.471L252.691,725.779C252.691,723.837 251.704,722.948 249.859,722.948" style="fill:rgb(0,173,220);fill-rule:nonzero;"/>
                    <g id="g4995" transform="matrix(1,0,0,1,260.2776,729.1941)">
                        <path id="path4997" d="M0,0C-0.422,0.203 -0.988,0.331 -1.601,0.331C-2.666,0.331 -3.327,-0.101 -3.327,-0.89L-3.327,-0.922C-3.327,-1.596 -2.771,-1.99 -1.966,-1.99C-0.792,-1.99 0,-1.35 0,-0.444L0,0ZM-0.051,-3.556L-0.051,-2.602C-0.664,-3.282 -1.503,-3.721 -2.72,-3.721C-4.382,-3.721 -5.753,-2.773 -5.753,-1.017L-5.753,-0.99C-5.753,0.939 -4.282,1.827 -2.187,1.827C-1.306,1.827 -0.664,1.678 -0.036,1.473L-0.036,1.622C-0.036,2.662 -0.674,3.244 -1.931,3.244C-2.894,3.244 -3.558,3.053 -4.372,2.755L-4.989,4.674C-4.029,5.098 -3.061,5.374 -1.561,5.374C1.17,5.374 2.373,3.959 2.373,1.575L2.373,-3.556L-0.051,-3.556Z" style="fill:rgb(0,173,220);fill-rule:nonzero;"/>
                    </g>
                    <g id="g4999" transform="matrix(1,0,0,1,270.0415,729.1941)">
                        <path id="path5001" d="M0,0C-0.433,0.203 -0.992,0.331 -1.602,0.331C-2.678,0.331 -3.336,-0.101 -3.336,-0.89L-3.336,-0.922C-3.336,-1.596 -2.772,-1.99 -1.964,-1.99C-0.789,-1.99 -0,-1.35 -0,-0.444L0,0ZM-0.051,-3.556L-0.051,-2.602C-0.658,-3.282 -1.506,-3.721 -2.719,-3.721C-4.388,-3.721 -5.754,-2.773 -5.754,-1.017L-5.754,-0.99C-5.754,0.939 -4.291,1.827 -2.194,1.827C-1.304,1.827 -0.658,1.678 -0.037,1.473L-0.037,1.622C-0.037,2.662 -0.678,3.244 -1.936,3.244C-2.889,3.244 -3.559,3.053 -4.369,2.755L-4.999,4.674C-4.021,5.098 -3.065,5.374 -1.563,5.374C1.174,5.374 2.375,3.959 2.375,1.575L2.375,-3.556L-0.051,-3.556Z" style="fill:rgb(0,173,220);fill-rule:nonzero;"/>
                    </g>
                    <g id="g5003" transform="matrix(1,0,0,1,280.1667,725.6379)">
                        <path id="path5005" d="M0,0L0,4.922C0,6.108 -0.56,6.722 -1.518,6.722C-2.476,6.722 -3.084,6.108 -3.084,4.922L-3.084,0L-5.594,0L-5.594,8.833L-3.084,8.833L-3.084,7.579C-2.51,8.321 -1.764,9.004 -0.496,9.004C1.402,9.004 2.507,7.743 2.507,5.714L2.507,0L0,0Z" style="fill:rgb(0,173,220);fill-rule:nonzero;"/>
                    </g>
                    <g id="g5007" transform="matrix(1,0,0,1,151.3473,744.1703)">
                        <path id="path5009" d="M0,0C1.297,0 2.117,0.763 2.117,1.835C2.117,2.979 1.229,3.667 0,3.667L-2.73,3.667L-2.73,0L0,0ZM-0.377,6.653C0.667,6.653 1.438,7.302 1.438,8.192C1.438,9.071 0.667,9.715 -0.377,9.715L-2.73,9.715L-2.73,6.653L-0.377,6.653ZM0.437,13.015C3.342,13.015 5.375,11.08 5.375,8.698C5.375,7.167 4.327,5.865 3.342,5.515L3.342,5.496C4.883,5.072 6.208,3.306 6.208,1.652C6.208,-1.07 4.417,-3.284 0.392,-3.284L-6.641,-3.284L-6.641,13.015L0.437,13.015Z" style="fill:rgb(57,181,74);fill-rule:nonzero;"/>
                    </g>
                    <g id="g5011" transform="matrix(1,0,0,1,166.4497,749.6666)">
                        <path id="path5013" d="M0,0C1.507,0 2.414,0.713 2.414,1.93C2.414,3.134 1.507,3.855 0,3.855L-2.234,3.855L-2.234,0L0,0ZM0.067,7.514C4.077,7.514 6.499,5.41 6.499,1.93C6.499,-1.566 4.077,-3.661 0.067,-3.661L-2.234,-3.661L-2.234,-8.78L-6.143,-8.78L-6.143,7.518L0.067,7.514Z" style="fill:rgb(57,181,74);fill-rule:nonzero;"/>
                    </g>
                    <g id="g5015" transform="matrix(1,0,0,1,185.2542,757.1808)">
                        <path id="path5017" d="M0,0L0,-9.06C0,-13.94 -3.025,-16.619 -7.331,-16.619C-10.445,-16.619 -13.078,-14.853 -14.05,-12.46L-10.215,-11.433C-9.658,-12.411 -8.657,-12.963 -7.331,-12.963C-5.186,-12.963 -3.913,-11.526 -3.913,-9.198L-3.913,0L0,0Z" style="fill:rgb(57,181,74);fill-rule:nonzero;"/>
                    </g>
                    <g id="g5019" transform="matrix(1,0,0,1,197.1512,752.009)">
                        <path id="path5021" d="M0,0C-0.398,1.447 -1.653,2.124 -2.815,2.124C-3.979,2.124 -4.648,1.536 -4.648,0.887C-4.648,-0.183 -3.023,-0.578 -1.041,-1.306C1.38,-2.182 3.916,-3.559 3.916,-6.354C3.916,-9.333 1.352,-11.447 -2.441,-11.447C-5.842,-11.447 -8.262,-9.566 -9.334,-6.518L-5.585,-5.512C-5.163,-6.739 -4.002,-7.98 -2.278,-7.98C-0.877,-7.98 -0.225,-7.324 -0.225,-6.537C-0.225,-5.231 -2.138,-4.913 -4.472,-4.025C-6.422,-3.284 -8.681,-2.217 -8.681,0.651C-8.681,3.19 -6.119,5.489 -2.587,5.489C0.533,5.489 3.006,3.585 3.772,1.029L0,0Z" style="fill:rgb(57,181,74);fill-rule:nonzero;"/>
                    </g>
                </g>
            </g>
        </g>
    </g>
</svg>
